# xmcd
#
# Track frame offsets:
#	150
#	18392
#	56273
#	80522
#	95022
#	115115
#	140528
#	159679
#	177137
#	196651
#	214047
#	241141
#	278932
#
# Disc length: 4260 seconds
#
# Revision: 1
# Processed by: cddbd v1.5.2PL0 Copyright (c) Steve Scherf et al.
# Submitted via: audiograbber 1.83.01
#
DISCID=aa10a20d
DTITLE=Alabama - Forever Alabama - Collector's Edition [CD 1)
DYEAR=2007
DGENRE=Country
TTITLE0=Can't Keep A Good Man Down (Live)
TTITLE1=Tennessee River (Live)
TTITLE2=Take Me Down (LIve)
TTITLE3=Love In The First Degree (Live)
TTITLE4=Red River (Live)
TTITLE5=Dixieland Delight (Live)
TTITLE6=Lady Down On Love (Live)
TTITLE7=If You're Gonna Play In Texas (You Gotta Have A Fiddle In The Band)(Liv
TTITLE7=e)
TTITLE8=Fireworks (Live)
TTITLE9=Medley - When We Make Love, There's No Way (Live)
TTITLE10=Gonna Have A Party (Live)
TTITLE11=Can't You See (Live)
TTITLE12=My Home's In Alabama (Live)
EXTD=
EXTT0=
EXTT1=
EXTT2=
EXTT3=
EXTT4=
EXTT5=
EXTT6=
EXTT7=
EXTT8=
EXTT9=
EXTT10=
EXTT11=
EXTT12=
PLAYORDER=
